<svg xmlns="http://www.w3.org/2000/svg" width="88" height="81" viewBox="0 0 88 81">
  <g transform="translate(-2 -1.68)">
    <rect width="2" height="2" transform="translate(22.759 33.269)" fill="#f55252"/>
    <rect width="2" height="2" transform="translate(37.586 33.269)" fill="#f55252"/>
    <path d="M88.742,47.78l-5.73-.749a17.937,17.937,0,0,0-.964-2.149l3.467-4.233a1.26,1.26,0,0,0-.136-1.755l-6.223-5.7a1.511,1.511,0,0,0-.889-.38V19.89a10.429,10.429,0,0,0,4.4-8.381,10.606,10.606,0,0,0-6.707-9.7,1.584,1.584,0,0,0-1.411.08,1.32,1.32,0,0,0-.682,1.134v7.52l-2.933.9L68,10.543V3.023a1.321,1.321,0,0,0-.684-1.13,1.585,1.585,0,0,0-1.409-.078,10.606,10.606,0,0,0-6.707,9.7,10.429,10.429,0,0,0,4.4,8.381v9.076H59.2a1.432,1.432,0,0,0-1.452,1.152L56.8,36.2l2.9.38.769-4.928h6.257L67.5,36.58a1.387,1.387,0,0,0,1.041,1.1A18.451,18.451,0,0,1,72.058,39a1.579,1.579,0,0,0,1.585-.1l4.343-2.981,4.423,4.05-3.263,3.976a1.25,1.25,0,0,0-.113,1.452,15.3,15.3,0,0,1,1.448,3.223,1.434,1.434,0,0,0,1.2.953l5.383.7v5.729l-5.383.7a1.434,1.434,0,0,0-1.2.953,15.3,15.3,0,0,1-1.448,3.223,1.25,1.25,0,0,0,.113,1.452L82.4,66.314l-4.423,4.05-4.34-2.992a1.579,1.579,0,0,0-1.585-.1,18.451,18.451,0,0,1-3.52,1.325,1.387,1.387,0,0,0-1.041,1.1l-.764,4.931H60.667V68.944a13.74,13.74,0,0,0-.66-4.191A13.964,13.964,0,0,0,75.082,59.51,11.441,11.441,0,0,0,73.665,44.8a14.247,14.247,0,0,0-15.845-2.747c-5.358,2.435-8.3,7.833-7.192,13.215-.035-.013-.069-.03-.1-.042L38.667,50.886V48.822a16.1,16.1,0,0,0,5.1-3.741h3.7a4.227,4.227,0,0,0,4.4-4.029V38.119A4.069,4.069,0,0,0,54.8,34.338V30.309a4.069,4.069,0,0,0-2.933-3.781v-1.59c0-10.383-9.193-18.8-20.533-18.8S10.8,14.555,10.8,24.938v1.59a4.069,4.069,0,0,0-2.933,3.781v4.029a4.227,4.227,0,0,0,4.4,4.029H15.2c.094,0,.185-.013.277-.019A15,15,0,0,0,24,48.822v2.064L12.142,55.228C6,57.456,1.979,62.9,2,68.944V81.337A1.409,1.409,0,0,0,3.467,82.68H59.2a1.409,1.409,0,0,0,1.467-1.343V77.309H68a1.432,1.432,0,0,0,1.452-1.152l.818-5.246a21.643,21.643,0,0,0,2.347-.882L77.24,73.2a1.569,1.569,0,0,0,1.917-.125l6.223-5.7a1.26,1.26,0,0,0,.136-1.755l-3.467-4.233a17.94,17.94,0,0,0,.964-2.149l5.73-.749A1.387,1.387,0,0,0,90,57.166V49.109a1.387,1.387,0,0,0-1.259-1.329ZM72.608,36.247c-.069-.031-.147-.051-.216-.081v-16.6H69.467V30.215l-.015-.1A1.432,1.432,0,0,0,68,28.966H66.533V19.217a1.314,1.314,0,0,0-.629-1.1,7.928,7.928,0,0,1-3.756-6.124A7.736,7.736,0,0,1,65.067,5.5V11.51a1.359,1.359,0,0,0,1,1.274l4.4,1.343a1.6,1.6,0,0,0,.927,0l4.4-1.343a1.359,1.359,0,0,0,1-1.274V5.5a7.736,7.736,0,0,1,2.921,6.5,7.928,7.928,0,0,1-3.759,6.126,1.314,1.314,0,0,0-.629,1.1V34.382ZM53.333,53.138a9.642,9.642,0,0,1,7.69-9.218,10.741,10.741,0,0,1,11.668,4.519,8.889,8.889,0,0,1-1.869,11.472,11.076,11.076,0,0,1-12.6,1.2,15.213,15.213,0,0,0-3.829-3.863,8.552,8.552,0,0,1-1.059-4.114ZM47.467,42.395H45.686a13.816,13.816,0,0,0,1.5-4.047c.092,0,.183.019.277.019h1.467v2.686A1.409,1.409,0,0,1,47.467,42.395ZM44.533,27.624a4.571,4.571,0,0,1-3.52-1.611l-2.64-3.223a1.5,1.5,0,0,0-.989-.526,1.582,1.582,0,0,0-1.1.283l-4.922,3.6a7.794,7.794,0,0,1-4.575,1.477H18.133V26.281c0-6.675,5.91-12.086,13.2-12.086s13.2,5.411,13.2,12.086Zm7.333,6.714A1.409,1.409,0,0,1,50.4,35.681H47.467V28.966H50.4a1.409,1.409,0,0,1,1.467,1.343ZM31.333,8.824c9.716.01,17.589,7.219,17.6,16.114v1.343H47.467c0-8.158-7.223-14.771-16.133-14.771S15.2,18.123,15.2,26.281H13.733V24.938c.011-8.9,7.884-16.1,17.6-16.114ZM12.267,35.681A1.409,1.409,0,0,1,10.8,34.338V30.309a1.409,1.409,0,0,1,1.467-1.343H15.2v6.714Zm5.867,0V30.309h8.653a10.913,10.913,0,0,0,6.412-2.06l3.741-2.741,1.726,2.115a7.619,7.619,0,0,0,5.867,2.686v5.371A11.309,11.309,0,0,1,42.3,42.395H31.333v2.686h8.278a14.18,14.18,0,0,1-13.978,1.5,12.036,12.036,0,0,1-7.5-10.9Zm13.2,14.771a17.469,17.469,0,0,0,4.4-.572v1.915a4.227,4.227,0,0,1-4.4,4.029,4.227,4.227,0,0,1-4.4-4.029V49.88a17.47,17.47,0,0,0,4.4.572Zm26.4,29.543h-8.8V65.223H46V79.995H16.667V65.223H13.733V79.995h-8.8V68.944a12.087,12.087,0,0,1,8.3-11.222L24.324,53.66a7.224,7.224,0,0,0,7.009,4.849,7.224,7.224,0,0,0,7.009-4.849l11.092,4.062a12.087,12.087,0,0,1,8.3,11.222Z" transform="translate(0 0)" fill="#f55252"/>
    <rect width="2" height="2" transform="translate(62.793 34.624)" fill="#f55252"/>
    <rect width="2" height="2" transform="translate(62.793 72.68)" fill="#f55252"/>
    <rect width="2" height="2" transform="translate(79.778 65.775) rotate(-45)" fill="#f55252"/>
    <rect width="2" height="2" transform="translate(84 52.234)" fill="#f55252"/>
    <rect width="2" height="2" transform="translate(79.778 40.777) rotate(-45)" fill="#f55252"/>
  </g>
</svg>
