<svg  xmlns="http://www.w3.org/2000/svg" width="81.006" height="81" viewBox="0 0 81.006 81">
  <g transform="translate(45.42 0)">
    <path data-name="Path 12" d="M307.822,17.7c-1.041-10.3-9-17.035-9.334-17.317a1.582,1.582,0,0,0-2-.016c-.083.067-8.28,6.785-9.3,17.31-.069.714-.1,1.439-.1,2.153a1.582,1.582,0,0,0,1.582,1.579h0a1.582,1.582,0,0,0,1.579-1.585c0-.611.029-1.231.088-1.842a19.132,19.132,0,0,1,.3-2l5.076,5.075a1.588,1.588,0,0,0,.214.177v3.853a1.582,1.582,0,0,0,3.164,0V16.927l4.264-4.264a20.166,20.166,0,0,1,1.323,5.357c.062.61.094,1.23.095,1.842a1.582,1.582,0,0,0,1.582,1.579h0a1.582,1.582,0,0,0,1.579-1.585C307.932,19.141,307.894,18.416,307.822,17.7Zm-11.9-1.465c0,.024,0,.048,0,.073V16.8l-4.26-4.26a26.135,26.135,0,0,1,4.26-7.066Zm3.164-3.785V5.562A28.08,28.08,0,0,1,301.9,9.636Z" transform="translate(-287.079 -0.019)" fill="#f55252"/>
  </g>
  <g transform="translate(77.819 77.836)">
    <path d="M493.455,491.98h-.018a1.582,1.582,0,0,0,0,3.164h.018a1.582,1.582,0,0,0,0-3.164Z" transform="translate(-491.855 -491.98)" fill="#f55252"/>
  </g>
  <g  transform="translate(0.001 21.076)">
    <path d="M74.255,189.989H57.433V184.2l2.332-2.332a1.582,1.582,0,0,0-2.237-2.237l-.094.094V175.4A32.984,32.984,0,0,0,64.6,163.617a1.582,1.582,0,1,0-2.987-1.044,29.781,29.781,0,0,1-4.176,7.9V159.123l1.961-1.967a9.785,9.785,0,0,0,5.579,2.151q.193.008.387.008c2.9,0,5.758-1.393,8.5-4.145,8.113-8.14,7.136-19.948,7.09-20.447a1.582,1.582,0,0,0-1.407-1.429c-.121-.013-12.133-1.193-20.412,7.113a15.314,15.314,0,0,0-3.281,4.621,15.319,15.319,0,0,0-3.28-4.621c-8.279-8.306-20.292-7.126-20.412-7.113a1.582,1.582,0,0,0-1.407,1.429c-.045.5-1.023,12.307,7.09,20.447,2.743,2.752,5.6,4.145,8.5,4.145.129,0,.258,0,.387-.008a9.786,9.786,0,0,0,5.579-2.151l1.96,1.966v14.023L53.224,172.1a1.582,1.582,0,0,0-2.237,2.237l3.281,3.281v12.369H1.586a1.582,1.582,0,0,0,0,3.164H74.254a1.582,1.582,0,0,0,0-3.164Zm2.162-45h-4.9l6.2-6.217A27.509,27.509,0,0,1,76.417,144.991Zm-12.235-4.665A24.381,24.381,0,0,1,75.5,136.515L64.181,147.869Zm4.183,7.829h6.714a19.278,19.278,0,0,1-3.458,4.781c-2.2,2.207-4.379,3.286-6.478,3.21a6.515,6.515,0,0,1-3.493-1.254Zm-7.347-5.146v8.035l-1.6,1.607a6.577,6.577,0,0,1-1.243-3.467C58.087,147.18,59.045,145.1,61.017,143.009Zm-13.5-2.683v7.543L36.2,136.515A24.383,24.383,0,0,1,47.52,140.326Zm-13.533-1.552,6.2,6.217h-4.9A27.539,27.539,0,0,1,33.987,138.774Zm12.607,17.371c-2.111.09-4.3-.99-6.512-3.209a19.262,19.262,0,0,1-3.458-4.781h6.713l4.646,4.661h0l2.07,2.076A6.52,6.52,0,0,1,46.594,156.145Zm6.937-7a6.57,6.57,0,0,1-1.246,3.5l-1.6-1.606v-8.035C52.646,145.092,53.6,147.156,53.531,149.149Z" transform="translate(-0.004 -133.229)" fill="#f55252"/>
  </g>
  <g transform="translate(41.032 8.692)">
    <path d="M261.415,55.034l-.019-.006a1.582,1.582,0,0,0-.944,3.02l.034.01a1.582,1.582,0,1,0,.929-3.025Z" transform="translate(-259.342 -54.956)" fill="#f55252"/>
  </g>
  <g transform="translate(0 7.275)">
    <path id="Path_16" data-name="Path 16" d="M52.029,93.018l-1.662-.389a11.51,11.51,0,0,0-13.193,6.637l-4.337,10.013a30.014,30.014,0,0,1-6.495-.791l-1.995-6.652a10.7,10.7,0,0,1,5.567-12.726l1.59-.777a5.63,5.63,0,0,0-2.472-10.688H25.257a3.093,3.093,0,0,1-2.511-4.9L26.158,68a6.257,6.257,0,0,0-.271-7.657l-6.495-7.8a29.874,29.874,0,0,1,13.83-3.376c.941,0,1.89.044,2.823.131a1.582,1.582,0,1,0,.293-3.15c-1.03-.1-2.078-.144-3.116-.144a33.019,33.019,0,0,0-16.9,4.632,1.578,1.578,0,0,0-.332.2A33.216,33.216,0,0,0,24.556,111.3a1.588,1.588,0,0,0,.24.065A33.272,33.272,0,0,0,50.018,107.9a1.582,1.582,0,0,0-1.6-2.729,29.978,29.978,0,0,1-12.061,3.951l3.723-8.6a8.35,8.35,0,0,1,9.569-4.814l1.661.389a1.582,1.582,0,1,0,.721-3.081ZM3.164,79.226A30.054,30.054,0,0,1,16.632,54.173l6.824,8.2a3.093,3.093,0,0,1,.134,3.785L20.177,70.9a6.257,6.257,0,0,0,5.08,9.911h3.776a2.475,2.475,0,0,1,2.127,1.219,2.466,2.466,0,0,1-1.044,3.463l-1.59.777a13.849,13.849,0,0,0-7.209,16.477l1.391,4.64A30.109,30.109,0,0,1,3.164,79.226Z" transform="translate(0 -46.003)" fill="#f55252"/>
  </g>
</svg>
