<svg xmlns="http://www.w3.org/2000/svg" width="81" height="81" viewBox="0 0 81 81">
  <g transform="translate(-1 -1)">
    <path d="M80.694,33.661h-4.8a34.91,34.91,0,0,0-4.565-11l3.756-3.756a1.3,1.3,0,0,0,0-1.847L65.94,7.915a1.3,1.3,0,0,0-1.847,0l-3.756,3.756a34.879,34.879,0,0,0-11-4.565v-4.8A1.307,1.307,0,0,0,48.032,1H34.968a1.307,1.307,0,0,0-1.306,1.306v4.8a34.91,34.91,0,0,0-11,4.565L18.908,7.915a1.3,1.3,0,0,0-1.847,0L7.915,17.06a1.3,1.3,0,0,0,0,1.847l3.756,3.756a34.854,34.854,0,0,0-4.565,11h-4.8A1.307,1.307,0,0,0,1,34.968V48.032a1.307,1.307,0,0,0,1.306,1.306h4.8a35.052,35.052,0,0,0,2.277,6.74,10.451,10.451,0,0,0,2.068,20.7v3.919A1.307,1.307,0,0,0,12.758,82H70.242a1.307,1.307,0,0,0,1.306-1.306V76.774a10.451,10.451,0,0,0,2.068-20.7,35.112,35.112,0,0,0,2.277-6.74h4.8A1.307,1.307,0,0,0,82,48.032V34.968A1.307,1.307,0,0,0,80.694,33.661ZM16.677,66.323a2.613,2.613,0,1,1,2.613,2.613A2.616,2.616,0,0,1,16.677,66.323Zm-1.887,2.613H4.07a7.694,7.694,0,0,1,0-5.226H14.791a5.063,5.063,0,0,0,0,5.226ZM68.935,79.387H14.065V76.774H68.935ZM79.387,66.323a7.847,7.847,0,0,1-7.839,7.839h-60.1a7.816,7.816,0,0,1-5.827-2.613H19.29a5.226,5.226,0,0,0,0-10.452H5.625a7.816,7.816,0,0,1,5.827-2.613h60.1A7.847,7.847,0,0,1,79.387,66.323ZM40.194,21.9V16.744c.435-.024.865-.067,1.306-.067s.871.043,1.306.067V21.9Zm-1.306,2.613h1.306v2.613H38.887a1.3,1.3,0,0,0-.924.383l-2.613,2.613a1.3,1.3,0,0,0-.383.924v2.613a1.3,1.3,0,0,0,.383.924L37.963,37.2l1.847-1.847-2.23-2.23V31.589l1.847-1.847h4.144l1.847,1.847V33.12l-2.23,2.23L45.037,37.2l2.613-2.613a1.3,1.3,0,0,0,.383-.924V31.048a1.3,1.3,0,0,0-.383-.924l-2.613-2.613a1.3,1.3,0,0,0-.924-.383H42.806V24.516h1.306a1.307,1.307,0,0,0,1.306-1.306V17.018A24.839,24.839,0,0,1,66.323,41.5a24.585,24.585,0,0,1-4.6,14.371H61.1V44.113a1.307,1.307,0,0,0-1.306-1.306H44.113a1.307,1.307,0,0,0-1.306,1.306V55.871H40.194V44.113a1.307,1.307,0,0,0-1.306-1.306H23.21A1.307,1.307,0,0,0,21.9,44.113V55.871H21.28a24.585,24.585,0,0,1-4.6-14.371,24.839,24.839,0,0,1,20.9-24.482V23.21A1.307,1.307,0,0,0,38.887,24.516Zm11.758,20.9h2.613v2.613H50.645Zm-1.306,5.226h5.226a1.307,1.307,0,0,0,1.306-1.306V45.419h2.613V55.871H45.419V45.419h2.613v3.919A1.307,1.307,0,0,0,49.339,50.645Zm-19.6-5.226h2.613v2.613H29.742Zm-1.306,5.226h5.226a1.307,1.307,0,0,0,1.306-1.306V45.419h2.613V55.871H24.516V45.419h2.613v3.919A1.307,1.307,0,0,0,28.435,50.645Zm50.952-3.919H74.834a1.3,1.3,0,0,0-1.282,1.057,32.409,32.409,0,0,1-2.737,8.088h-5.95A27.434,27.434,0,1,0,14.065,41.5a27.189,27.189,0,0,0,4.071,14.371H12.185a32.462,32.462,0,0,1-2.737-8.088,1.3,1.3,0,0,0-1.282-1.057H3.613V36.274H8.166a1.3,1.3,0,0,0,1.282-1.057,32.336,32.336,0,0,1,4.979-11.995,1.306,1.306,0,0,0-.158-1.657l-3.582-3.582,7.3-7.3,3.584,3.584a1.308,1.308,0,0,0,1.657.158A32.311,32.311,0,0,1,35.219,9.449a1.307,1.307,0,0,0,1.056-1.283V3.613H46.726V8.166a1.3,1.3,0,0,0,1.057,1.282,32.311,32.311,0,0,1,11.995,4.979,1.306,1.306,0,0,0,1.657-.158l3.582-3.582,7.3,7.3L68.73,21.567a1.306,1.306,0,0,0-.158,1.657,32.311,32.311,0,0,1,4.979,11.995,1.307,1.307,0,0,0,1.283,1.056h4.553Z" fill="#f55252"/>
    <path d="M26.226,47a5.226,5.226,0,1,0,5.226,5.226A5.231,5.231,0,0,0,26.226,47Zm0,7.839a2.613,2.613,0,1,1,2.613-2.613A2.616,2.616,0,0,1,26.226,54.839Z" transform="translate(6.129 14.097)" fill="#f55252"/>
    <path d="M36.226,47a5.226,5.226,0,1,0,5.226,5.226A5.231,5.231,0,0,0,36.226,47Zm0,7.839a2.613,2.613,0,1,1,2.613-2.613A2.616,2.616,0,0,1,36.226,54.839Z" transform="translate(9.194 14.097)" fill="#f55252"/>
    <path d="M46.226,47a5.226,5.226,0,1,0,5.226,5.226A5.231,5.231,0,0,0,46.226,47Zm0,7.839a2.613,2.613,0,1,1,2.613-2.613A2.616,2.616,0,0,1,46.226,54.839Z" transform="translate(12.258 14.097)" fill="#f55252"/>
    <path d="M51,52.226A5.226,5.226,0,1,0,56.226,47,5.231,5.231,0,0,0,51,52.226Zm7.839,0a2.613,2.613,0,1,1-2.613-2.613A2.616,2.616,0,0,1,58.839,52.226Z" transform="translate(15.323 14.097)" fill="#f55252"/>
  </g>
</svg>
